# xmcd
#
# Track frame offsets: 
#        150
#        11393
#        23664
#        44195
#        57592
#        73773
#        86027
#        96707
#        109062
#        123306
#        141534
#        165344
#        177770
#        189363
#        201035
#        213228
#        224370
#
# Disc length: 3656 seconds
#
# Revision: 0
# Processed by: cddbd v1.5.2PL0 Copyright (c) Steve Scherf et al.
# Submitted via: ExactAudioCopy v0.95b3
#
DISCID=fd0e4611
DTITLE=Creedence Clearwater Revival  - Collected - Disc 1
DYEAR=1900
DGENRE=
TTITLE0=Who'll Stop The Rain
TTITLE1=Up Around The Bend
TTITLE2=I Put A Spell On You
TTITLE3=Sweet Hitch-Hiker
TTITLE4=Long As I Can See The Light
TTITLE5=Have You Ever Seen The Rain
TTITLE6=Bad Moon Rising
TTITLE7=Good Golly Miss Molly
TTITLE8=Proud Mary
TTITLE9=Someday Never Comes
TTITLE10=Born On The Bayou
TTITLE11=Commotion
TTITLE12=Green River
TTITLE13=Lookin' Out My Back Door
TTITLE14=Molina
TTITLE15=Poorboy Shuffle
TTITLE16=I Heard It Through The Grapevine
EXTD=
EXTT0=
EXTT1=
EXTT2=
EXTT3=
EXTT4=
EXTT5=
EXTT6=
EXTT7=
EXTT8=
EXTT9=
EXTT10=
EXTT11=
EXTT12=
EXTT13=
EXTT14=
EXTT15=
EXTT16=
PLAYORDER=
